<?xml version="1.0" encoding="UTF-8"?>
<svg version="1.1" xmlns="http://www.w3.org/2000/svg" width="64" height="64">
<path d="M0 0 C1.12207352 0.00280975 1.12207352 0.00280975 2.26681519 0.00567627 C3.84540271 0.01239165 5.42397374 0.02629608 7.00244141 0.046875 C9.42756486 0.07809767 11.85203901 0.0878526 14.27734375 0.09375 C15.80990382 0.1029173 17.34245724 0.1132922 18.875 0.125 C19.96870407 0.13137482 19.96870407 0.13137482 21.08450317 0.13787842 C26.18751285 0.21095035 26.18751285 0.21095035 27.3046875 1.328125 C27.39312543 3.77642926 27.41997502 6.19633099 27.40234375 8.64453125 C27.4009288 9.37558578 27.39951385 10.10664032 27.39805603 10.85984802 C27.39244158 13.20348132 27.37988672 15.54702039 27.3671875 17.890625 C27.36217436 19.47591008 27.35761113 21.06119666 27.35351562 22.64648438 C27.34246747 26.5404011 27.32519322 30.43424705 27.3046875 34.328125 C26.6446875 34.328125 25.9846875 34.328125 25.3046875 34.328125 C25.3046875 36.968125 25.3046875 39.608125 25.3046875 42.328125 C25.9646875 42.328125 26.6246875 42.328125 27.3046875 42.328125 C27.3046875 43.978125 27.3046875 45.628125 27.3046875 47.328125 C22.53586874 47.42712635 17.7676502 47.49965428 12.99804688 47.54785156 C11.37619607 47.56794644 9.75441753 47.59522754 8.1328125 47.62988281 C5.7992977 47.6784977 3.46674193 47.70111389 1.1328125 47.71875 C0.04821747 47.74971771 0.04821747 47.74971771 -1.05828857 47.78131104 C-4.25316641 47.78272968 -6.3881453 47.51052173 -9.15356445 45.8684082 C-11.45935888 42.06923307 -11.24945484 38.65873769 -11.19140625 34.29296875 C-11.19286148 33.41790176 -11.19431671 32.54283478 -11.19581604 31.64125061 C-11.19415848 29.79457259 -11.18261312 27.94788056 -11.16186523 26.10131836 C-11.13287811 23.27202862 -11.14126508 20.44460911 -11.15429688 17.61523438 C-11.14806027 15.82030338 -11.13966994 14.02537831 -11.12890625 12.23046875 C-11.13184189 11.38354965 -11.13477753 10.53663055 -11.13780212 9.66404724 C-11.04314935 3.78606865 -11.04314935 3.78606865 -9.38542175 1.60359192 C-6.58357552 -0.5108644 -3.3679114 -0.05734884 0 0 Z " fill="#9C34C1" transform="translate(23.6953125,7.671875)"/>
<path d="M0 0 C1.20970459 0.00523682 2.41940918 0.01047363 3.66577148 0.01586914 C4.97094727 0.0190918 6.27612305 0.02231445 7.62084961 0.02563477 C9.00952213 0.03399138 10.39819401 0.04245634 11.78686523 0.05102539 C13.17944179 0.05603873 14.57202005 0.06060193 15.96459961 0.06469727 C19.38456394 0.07653105 22.80444367 0.09301659 26.22436523 0.11352539 C26.22436523 2.75352539 26.22436523 5.39352539 26.22436523 8.11352539 C22.13097872 8.16291654 18.03770725 8.1992404 13.9440918 8.22338867 C12.55115742 8.23345417 11.15824421 8.24710773 9.76538086 8.2644043 C7.76482164 8.28862759 5.76410908 8.29893353 3.76342773 8.30883789 C2.55895996 8.31931152 1.35449219 8.32978516 0.11352539 8.34057617 C-2.77563477 8.11352539 -2.77563477 8.11352539 -4.77563477 6.11352539 C-4.05028526 0.16565948 -4.05028526 0.16565948 0 0 Z " fill="#FBA2AD" transform="translate(22.775634765625,41.886474609375)"/>
<path d="M0 0 C1.7015625 -0.00386719 1.7015625 -0.00386719 3.4375 -0.0078125 C4.613125 -0.00007813 5.78875 0.00765625 7 0.015625 C8.7634375 0.00402344 8.7634375 0.00402344 10.5625 -0.0078125 C11.696875 -0.00523438 12.83125 -0.00265625 14 0 C15.03125 0.00225586 16.0625 0.00451172 17.125 0.00683594 C20.10356867 0.27494759 22.29864765 1.01550468 25 2.265625 C25 2.925625 25 3.585625 25 4.265625 C21.18998041 6.02880962 18.18581078 6.52209354 14 6.53125 C12.865625 6.53382812 11.73125 6.53640625 10.5625 6.5390625 C9.386875 6.53132813 8.21125 6.52359375 7 6.515625 C5.824375 6.52335937 4.64875 6.53109375 3.4375 6.5390625 C2.303125 6.53648438 1.16875 6.53390625 0 6.53125 C-1.03125 6.52899414 -2.0625 6.52673828 -3.125 6.52441406 C-6.10356867 6.25630241 -8.29864765 5.51574532 -11 4.265625 C-11 3.605625 -11 2.945625 -11 2.265625 C-7.18998041 0.50244038 -4.18581078 0.00915646 0 0 Z " fill="#000000" transform="translate(25,57.734375)"/>
<path d="M0 0 C1.08667969 0.02707031 2.17335938 0.05414062 3.29296875 0.08203125 C4.54013672 0.13423828 4.54013672 0.13423828 5.8125 0.1875 C5.8125 1.8375 5.8125 3.4875 5.8125 5.1875 C1.3575 5.6825 1.3575 5.6825 -3.1875 6.1875 C-3.22488281 7.37988281 -3.26226563 8.57226562 -3.30078125 9.80078125 C-3.36644032 11.367219 -3.43288768 12.93362384 -3.5 14.5 C-3.52255859 15.28568359 -3.54511719 16.07136719 -3.56835938 16.88085938 C-3.60380859 17.63818359 -3.63925781 18.39550781 -3.67578125 19.17578125 C-3.70196533 19.87227783 -3.72814941 20.56877441 -3.75512695 21.28637695 C-4.30834835 23.71886426 -5.24458898 24.66384089 -7.1875 26.1875 C-7.8475 26.1875 -8.5075 26.1875 -9.1875 26.1875 C-9.274485 22.41681168 -9.32788579 18.64638068 -9.375 14.875 C-9.40013672 13.80314453 -9.42527344 12.73128906 -9.45117188 11.62695312 C-9.46083984 10.59892578 -9.47050781 9.57089844 -9.48046875 8.51171875 C-9.4961792 7.56385498 -9.51188965 6.61599121 -9.52807617 5.6394043 C-9.1875 3.1875 -9.1875 3.1875 -7.8515625 1.37304688 C-5.2940176 -0.44905378 -3.08365789 -0.09947284 0 0 Z " fill="#B86ED3" transform="translate(22.1875,7.8125)"/>
<path d="M0 0 C0.98613281 0.00322266 1.97226562 0.00644531 2.98828125 0.00976562 C4.02082031 0.01814453 5.05335937 0.02652344 6.1171875 0.03515625 C7.67759766 0.04192383 7.67759766 0.04192383 9.26953125 0.04882812 C11.84380712 0.06063673 14.41796896 0.0771055 16.9921875 0.09765625 C16.9921875 1.74765625 16.9921875 3.39765625 16.9921875 5.09765625 C8.7421875 5.09765625 0.4921875 5.09765625 -8.0078125 5.09765625 C-7.6778125 3.77765625 -7.3478125 2.45765625 -7.0078125 1.09765625 C-4.50284246 -0.15482877 -2.79927976 -0.01608781 0 0 Z " fill="#852CA5" transform="translate(34.0078125,49.90234375)"/>
<path d="M0 0 C2.97 0 5.94 0 9 0 C9 3.96 9 7.92 9 12 C6.525 11.01 6.525 11.01 4 10 C2.02 10.99 2.02 10.99 0 12 C0 8.04 0 4.08 0 0 Z " fill="#FC3C50" transform="translate(28,8)"/>
<path d="M0 0 C0 6.27 0 12.54 0 19 C-2.64 19 -5.28 19 -8 19 C-7.51853516 18.19755859 -7.51853516 18.19755859 -7.02734375 17.37890625 C-5.40691637 13.62666187 -5.59631631 9.81999661 -5.44140625 5.77734375 C-5 3 -5 3 -3.58984375 1.12890625 C-2 0 -2 0 0 0 Z " fill="#852CA5" transform="translate(51,23)"/>
<path d="M0 0 C0.90492187 0.02320313 1.80984375 0.04640625 2.7421875 0.0703125 C4.10730469 0.09738281 4.10730469 0.09738281 5.5 0.125 C6.19867188 0.14820313 6.89734375 0.17140625 7.6171875 0.1953125 C7.6171875 1.8453125 7.6171875 3.4953125 7.6171875 5.1953125 C3.1621875 5.6903125 3.1621875 5.6903125 -1.3828125 6.1953125 C-1.7128125 7.8453125 -2.0428125 9.4953125 -2.3828125 11.1953125 C-3.3728125 10.8653125 -4.3628125 10.5353125 -5.3828125 10.1953125 C-4.43131996 0.36322295 -4.43131996 0.36322295 0 0 Z " fill="#BD78D6" transform="translate(20.3828125,7.8046875)"/>
<path d="M0 0 C1.98 0 3.96 0 6 0 C6 2.64 6 5.28 6 8 C4.02 8 2.04 8 0 8 C0 5.36 0 2.72 0 0 Z " fill="#D98D94" transform="translate(43,42)"/>
<path d="M0 0 C1.134375 0.020625 2.26875 0.04125 3.4375 0.0625 C3.1075 1.0525 2.7775 2.0425 2.4375 3.0625 C1.1175 3.0625 -0.2025 3.0625 -1.5625 3.0625 C-1.8925 4.7125 -2.2225 6.3625 -2.5625 8.0625 C-3.5525 7.7325 -4.5425 7.4025 -5.5625 7.0625 C-4.52245509 0.07934132 -4.52245509 0.07934132 0 0 Z " fill="#F0E0F5" transform="translate(20.5625,10.9375)"/>
<path d="M0 0 C2.97 0 5.94 0 9 0 C8.67 1.32 8.34 2.64 8 4 C5.29120665 5.35439668 2.99066732 5.06501451 0 5 C0 3.35 0 1.7 0 0 Z " fill="#FD7481" transform="translate(28,8)"/>
</svg>
